<svg width="320" height="320" viewBox="248 60 90 90" xmlns="http://www.w3.org/2000/svg" aria-hidden="true">
  <path
    d="m 284.19148,189.35056 c -1.96097,-0.23942 -3.64403,-0.83353 -5.37962,-1.89896 -1.33378,-0.81878 -5.32811,-4.76436 -6.20945,-6.13365 -0.40448,-0.62845 -0.62623,-0.85253 -0.77823,-0.78644 -1.50223,0.6531 -4.82132,-0.22323 -6.47428,-1.70938 -2.39414,-2.15254 -3.90042,-6.5966 -3.35477,-9.89776 0.11552,-0.69888 0.17733,-0.67324 0.73794,0.30612 2.30318,4.02358 7.13764,4.97941 9.87663,1.95273 0.65738,-0.72643 0.78006,-0.80886 0.86121,-0.57869 3.36263,9.53794 12.85686,10.49093 15.38059,1.54384 0.47477,-1.68316 0.449,-4.51204 -0.0551,-6.05316 -0.35761,-1.09315 -0.35761,-1.09315 0.086,-0.86579 0.90255,0.4626 1.74679,1.1157 2.79367,2.16118 1.6808,1.67854 1.63099,1.53727 1.21177,3.43647 -0.64328,2.91429 -0.71336,3.68971 -0.71501,7.91103 -10e-4,3.58316 0.0357,4.25953 0.3292,5.99453 0.38099,2.25249 0.49701,1.95616 -1.14216,2.91706 -2.3045,1.35092 -4.93075,1.97407 -7.16833,1.70087 z"
    fill="currentColor"
  />
</svg>
